<?xml version="1.0"?>
<svg xmlns="http://www.w3.org/2000/svg" xmlns:xlink="http://www.w3.org/1999/xlink" xmlns:svgjs="http://svgjs.com/svgjs" version="1.1" width="512" height="512" x="0" y="0" viewBox="0 0 512 512" style="enable-background:new 0 0 512 512" xml:space="preserve" class=""><g><g xmlns="http://www.w3.org/2000/svg" id="Solid"><path d="M368,184a8.009,8.009,0,0,1,8,8v16a8,8,0,0,1-16,0V192A8.009,8.009,0,0,1,368,184ZM32,472V344a8.009,8.009,0,0,1,8-8H248a8.009,8.009,0,0,1,8,8V472a8.009,8.009,0,0,1-8,8H40A8.009,8.009,0,0,1,32,472Zm88-72a24.039,24.039,0,0,0,16,22.624V440h16V422.624A24,24,0,1,0,120,400ZM376,272v16a8,8,0,0,0,16,0V272a8,8,0,0,0-16,0ZM344,136a8.009,8.009,0,0,0,8-8V112a8,8,0,0,0-16,0v16A8.009,8.009,0,0,0,344,136ZM184,104a8.009,8.009,0,0,0-8,8v16a8,8,0,0,0,16,0V112A8.009,8.009,0,0,0,184,104ZM320,264a8.009,8.009,0,0,0-8,8v16a8,8,0,0,0,16,0V272A8.009,8.009,0,0,0,320,264Zm32,88a8.009,8.009,0,0,0-8,8v16a8,8,0,0,0,16,0V360A8.009,8.009,0,0,0,352,352ZM144,408a8,8,0,1,0-8-8A8.009,8.009,0,0,0,144,408Zm0-176a40.028,40.028,0,0,0-8,.805V320h48V272A40.045,40.045,0,0,0,144,232Zm128-16a8.009,8.009,0,0,0,8-8V192a8,8,0,0,0-16,0v16A8.009,8.009,0,0,0,272,216ZM224,320V272a80,80,0,0,0-160,0v16H88V272a56,56,0,0,1,112,0v48ZM480,448V80a16.019,16.019,0,0,0-16-16H427.314l34.343,34.343A8,8,0,0,1,464,104V416a32.036,32.036,0,0,1-32,32H272v16H464A16.019,16.019,0,0,0,480,448ZM400,96h36.687L384,43.313V80A16.019,16.019,0,0,0,400,96ZM240,320V272a96.108,96.108,0,0,0-96-96c-2.694,0-5.361.117-8,.336V48a16.019,16.019,0,0,1,16-16H368V80a32.036,32.036,0,0,0,32,32h48V416a16.019,16.019,0,0,1-16,16H272V344a24.027,24.027,0,0,0-24-24Zm40-72H264v64h16Zm32,88H296v64h16Zm8-24a24.027,24.027,0,0,0,24-24V272a24,24,0,0,0-48,0v16A24.027,24.027,0,0,0,320,312Zm56,48a24,24,0,0,0-48,0v16a24,24,0,0,0,48,0Zm32-24H392v64h16Zm0-104h16V168H408Zm-24,16a24.027,24.027,0,0,0-24,24v16a24,24,0,0,0,48,0V272A24.027,24.027,0,0,0,384,248Zm-16-80a24.027,24.027,0,0,0-24,24v16a24,24,0,0,0,48,0V192A24.027,24.027,0,0,0,368,168Zm-48-40a24,24,0,0,0,48,0V112a24,24,0,0,0-48,0Zm-8,104h16V168H312ZM256,128a24,24,0,0,0,48,0V112a24,24,0,0,0-48,0Zm-8,80a24,24,0,0,0,48,0V192a24,24,0,0,0-48,0ZM160,64h16V48H160Zm48,48a24,24,0,0,0-48,0v16a24,24,0,0,0,48,0Zm0-64H192V64h16Zm16,16h16V48H224Zm16,88V88H224v64Zm40-16a8.009,8.009,0,0,0,8-8V112a8,8,0,0,0-16,0v16A8.009,8.009,0,0,0,280,136Z" fill="#ffffff" data-original="#000000" style=""/></g></g></svg>
