<?xml version="1.0" encoding="iso-8859-1"?>
<!-- Generator: Adobe Illustrator 19.0.0, SVG Export Plug-In . SVG Version: 6.00 Build 0)  -->
<svg version="1.1" id="Capa_1" xmlns="http://www.w3.org/2000/svg" xmlns:xlink="http://www.w3.org/1999/xlink" x="0px" y="0px"
	 viewBox="0 0 512 512" style="enable-background:new 0 0 512 512;" xml:space="preserve">
<g>
	<path style="fill:#A5A5A4;" d="M512,423.725V512h-35.31c-1.395-21.293-7.356-42.037-17.479-60.822l-0.353-0.971
		C477.812,444.125,495.731,435.195,512,423.725z"/>
	<path style="fill:#D1D4D1;" d="M420.193,470.776c-25.335,5.738-47.934,7.592-58.35,4.15c-27.012-8.828-18.008-26.483-18.008-44.138
		c0-17.655-9.004-8.828-18.008-17.655c-9.004-8.739-9.004-17.567-9.004-44.05c0.035-4.755-1.862-9.32-5.258-12.649
		c-3.395-3.329-7.997-5.136-12.751-5.006c-44.932-8.828,16.949-46.875,18.008-88.276c0.706-27.72-8.916-42.726-10.593-66.119
		c-0.639-14.7,0.999-29.41,4.855-43.609c6.352-26.206,18.208-50.761,34.781-72.033c27.983-36.105,68.414-52.877,115.377-65.412
		c3.354-0.884,6.709-1.678,10.063-2.383c0.971-0.265,2.03-0.441,3.001-0.619c4.59-0.971,9.181-1.765,13.859-2.383
		c0.265,0,0.618-0.088,0.883-0.088c7.608-1.041,15.273-1.602,22.952-1.677v414.897L420.193,470.776z"/>
	<g>
		<path style="fill:#41767F;" d="M512,0.089v167.636c0-17.655,0-35.31-26.483-44.138c-21.144-5.709-42.899-8.851-64.794-9.358
			c-4.59-0.265-9.181-0.794-13.859-1.412c-1.59-0.177-3.09-0.442-4.679-0.707c-21.65-2.927-41.472-13.702-55.703-30.278
			l-0.618-0.441c29.28-36.707,69.823-62.764,115.377-74.151c3.354-0.884,6.709-1.678,10.063-2.383
			c0.971-0.265,2.03-0.441,3.001-0.619c4.59-0.971,9.181-1.766,13.859-2.383c0.265,0,0.618-0.088,0.883-0.088
			C496.656,0.725,504.322,0.165,512,0.089z"/>
		<path style="fill:#41767F;" d="M512,291.311v142.036c-16.269,11.47-34.188,20.4-53.142,26.483
			c-12.651,4.44-25.564,8.096-38.665,10.946C420.282,420.458,494.345,423.636,512,291.311z"/>
	</g>
	<path style="fill:#67B9CC;" d="M500.083,55.615c-0.918,2.762-3.126,4.903-5.914,5.737c0.073,0.526,0.103,1.058,0.088,1.589
		c-0.288,2.308-1.483,4.407-3.322,5.832c-1.839,1.425-4.17,2.058-6.477,1.76c-1.821-0.154-3.652-0.154-5.473,0
		c-11.564,0.619-38.93,6.179-58.262,43.696c-4.59-0.265-9.181-0.794-13.859-1.412c-1.59-0.177-3.09-0.442-4.679-0.707
		c23.481-51.641,61.087-58.703,76.977-59.233c1.501-0.088,2.737-0.088,3.796-0.088c-0.073-0.799-0.013-1.604,0.177-2.383
		c0.121-0.759,0.18-1.527,0.177-2.295v-0.088c-1.932-14.886-5.974-29.42-12.006-43.166c0.971-0.265,2.03-0.441,3.001-0.619
		c4.59-0.971,9.181-1.766,13.859-2.383c0.265,0,0.618-0.088,0.883-0.088c5.763,13.968,9.68,28.627,11.652,43.608
		C501.083,48.798,500.874,52.262,500.083,55.615z"/>
	<path style="fill:#AF8066;" d="M213.186,351.427c-4.753-0.129-9.355,1.677-12.751,5.006s-5.293,7.894-5.258,12.649
		c0,26.483,0,26.483-18.008,26.483c0,0,18.008,8.828,9.004,17.567c-9.004,8.828-18.008,0-18.008,17.655s9.004,35.31-18.008,44.138
		c-15.625,5.119-58.527-1.59-97.015-15.096l-0.353,0.971C42.68,476.091,36.662,493.72,35.311,512H0V8.828l65.942,0
		c27.958-0.078,55.142,9.18,77.241,26.306c23.305,18.185,49.523,37.429,50.847,47.14c-0.883,4.501-6.444,7.061-18.626,6.444
		c-1.324-0.088-2.648-0.177-4.061-0.353v0.177c13.914,19.539,23.953,41.564,29.572,64.883c1.621,6.458,2.888,13.001,3.796,19.597
		c1.044,6.803,1.428,13.691,1.148,20.568c0.059,1.149,0.029,2.3-0.088,3.444c-1.677,23.392-11.299,38.399-10.593,66.119
		C196.237,304.552,258.119,342.6,213.186,351.427z"/>
	<path style="fill:#7F5B53;" d="M53.142,459.829l-0.353,0.971C42.68,476.091,36.662,493.72,35.311,512H0v-78.654
		C16.269,444.817,34.188,453.747,53.142,459.829z"/>
	<g>
		<path style="fill:#59474E;" d="M205.86,193.589c-11.583-7.025-24.313-11.955-37.606-14.565
			c-13.291-0.879-26.608,1.295-38.93,6.356c-4.149,1.323-8.21,2.648-12.182,3.707c-3.03,0.859-6.288,0.034-8.544-2.163
			c-2.256-2.198-3.166-5.433-2.386-8.485c0.78-3.051,3.13-5.454,6.164-6.3c3.796-1.059,7.68-2.295,11.564-3.531
			c14.927-6.073,31.088-8.494,47.139-7.061c11.731,2.084,23.074,5.954,33.633,11.475C205.756,179.824,206.14,186.712,205.86,193.589
			z"/>
		<path style="fill:#59474E;" d="M194.031,82.274c-0.883,4.501-6.444,7.061-18.626,6.444c-1.324-0.088-2.648-0.177-4.061-0.353
			c-0.561,0.015-1.121-0.015-1.677-0.088C89.335,79.449,0,176.552,0,176.552V0l65.942,0c27.958-0.078,55.142,9.18,77.241,26.306
			C168.077,45.727,196.414,70.621,194.031,82.274z"/>
	</g>
	<g>
		<path style="fill:#ECF0F1;" d="M353.104,141.242c-2.348,0.022-4.606-0.901-6.268-2.56c-0.78-0.859-1.408-1.844-1.858-2.914
			c-0.937-2.137-0.937-4.569,0-6.707c0.448-1.071,1.076-2.056,1.858-2.915c2.119-2.072,5.123-2.965,8.03-2.388
			c0.54,0.11,1.071,0.257,1.59,0.44c0.529,0.243,1.032,0.541,1.5,0.888c0.507,0.304,0.98,0.66,1.415,1.06
			c0.797,0.845,1.426,1.834,1.854,2.914c0.943,2.136,0.943,4.571,0,6.707c-0.45,1.068-1.077,2.053-1.854,2.914
			c-0.859,0.779-1.844,1.406-2.914,1.854C355.41,141.028,354.261,141.27,353.104,141.242z"/>
		<path style="fill:#ECF0F1;" d="M476.69,167.725c-2.348,0.023-4.607-0.9-6.267-2.56c-1.66-1.66-2.583-3.919-2.56-6.267
			c-0.03-1.157,0.211-2.305,0.703-3.353c0.427-1.081,1.058-2.07,1.857-2.914c0.419-0.38,0.861-0.735,1.323-1.06
			c0.49-0.335,1.024-0.602,1.586-0.793c0.501-0.255,1.037-0.435,1.59-0.535c1.721-0.36,3.511-0.173,5.121,0.535
			c2.217,0.804,3.963,2.55,4.767,4.767c1.163,2.714,0.876,5.832-0.762,8.29C482.41,166.29,479.643,167.754,476.69,167.725z"/>
		<path style="fill:#ECF0F1;" d="M467.862,353.104c-1.155-0.014-2.296-0.254-3.358-0.707c-2.215-0.807-3.96-2.552-4.767-4.767
			c-0.492-1.048-0.732-2.196-0.703-3.354c0.033-2.337,0.947-4.576,2.56-6.268c0.857-0.779,1.841-1.406,2.909-1.854
			c2.149-0.888,4.562-0.888,6.711,0c1.07,0.448,2.055,1.074,2.914,1.854c1.612,1.693,2.526,3.931,2.561,6.268
			c0.03,1.158-0.212,2.306-0.707,3.353c-0.45,1.068-1.077,2.053-1.854,2.914c-0.859,0.779-1.844,1.406-2.914,1.854
			C470.155,352.85,469.015,353.09,467.862,353.104z"/>
		<path style="fill:#ECF0F1;" d="M379.586,450.207c-1.155-0.014-2.296-0.254-3.358-0.707c-2.215-0.807-3.96-2.552-4.767-4.767
			c-0.937-2.137-0.937-4.569,0-6.707c0.427-1.081,1.057-2.071,1.857-2.915c2.063-2.143,5.078-3.084,7.994-2.493
			s5.327,2.63,6.394,5.407c0.943,2.136,0.943,4.571,0,6.707c-0.45,1.068-1.077,2.053-1.854,2.914
			c-0.859,0.779-1.844,1.406-2.914,1.854C381.879,449.953,380.739,450.193,379.586,450.207z"/>
	</g>
	<path style="fill:#67B9CC;" d="M199.857,227.311v0.088c-0.265,1.148-0.618,2.383-0.883,3.53
		c-1.319,5.291-2.321,10.656-3.001,16.067c-0.177,1.236-0.353,2.472-0.441,3.707c-9.033,5.603-20.07,6.959-30.19,3.709
		c-16.861-4.679-24.099-29.308-24.099-29.308s20.127-17.037,36.988-12.447C187.01,214.681,194.721,219.906,199.857,227.311z"/>
	<path style="fill:#46B29D;" d="M361.931,229.518c0.009,7.027-2.778,13.768-7.746,18.736c-4.969,4.969-11.71,7.756-18.736,7.746
		c-7.395,0.031-14.455-3.082-19.421-8.563c-1.201-8.981-3.06-17.862-5.561-26.571c4.214-12.223,16.646-19.609,29.395-17.466
		C352.612,205.544,361.945,216.589,361.931,229.518z"/>
	<circle style="fill:#2FA8CC;" cx="494.345" cy="61.794" r="17.655"/>
</g>
<g>
</g>
<g>
</g>
<g>
</g>
<g>
</g>
<g>
</g>
<g>
</g>
<g>
</g>
<g>
</g>
<g>
</g>
<g>
</g>
<g>
</g>
<g>
</g>
<g>
</g>
<g>
</g>
<g>
</g>
</svg>
