<?xml version="1.0"?>
<svg xmlns="http://www.w3.org/2000/svg" xmlns:xlink="http://www.w3.org/1999/xlink" xmlns:svgjs="http://svgjs.com/svgjs" version="1.1" width="512" height="512" x="0" y="0" viewBox="0 0 24 24" style="enable-background:new 0 0 512 512" xml:space="preserve"><g><path xmlns="http://www.w3.org/2000/svg" d="m8.477 13c-.2 0-.392-.08-.533-.222l-2.727-2.75c-.292-.294-.29-.769.004-1.061.295-.291.769-.289 1.062.005l2.158 2.176 4.243-4.89c.271-.313.745-.347 1.058-.075.313.271.346.745.075 1.058l-4.773 5.5c-.137.158-.334.252-.542.259-.008 0-.017 0-.025 0z" fill="#ffffff" data-original="#000000" style=""/><path xmlns="http://www.w3.org/2000/svg" d="m9.5 19c-5.238 0-9.5-4.262-9.5-9.5s4.262-9.5 9.5-9.5 9.5 4.262 9.5 9.5-4.262 9.5-9.5 9.5zm0-17.5c-4.411 0-8 3.589-8 8s3.589 8 8 8 8-3.589 8-8-3.589-8-8-8z" fill="#ffffff" data-original="#000000" style=""/><path xmlns="http://www.w3.org/2000/svg" d="m23.25 24c-.192 0-.384-.073-.53-.22l-7.31-7.31c-.293-.293-.293-.768 0-1.061s.768-.293 1.061 0l7.31 7.31c.293.293.293.768 0 1.061-.147.147-.339.22-.531.22z" fill="#ffffff" data-original="#000000" style=""/></g></svg>
