<?xml version="1.0"?>
<svg xmlns="http://www.w3.org/2000/svg" xmlns:xlink="http://www.w3.org/1999/xlink" xmlns:svgjs="http://svgjs.com/svgjs" version="1.1" width="512" height="512" x="0" y="0" viewBox="0 0 511.958 511.958" style="enable-background:new 0 0 512 512" xml:space="preserve"><g><g xmlns="http://www.w3.org/2000/svg"><path d="m174.979 340.487h222v30h-222z" fill="#ffffff" data-original="#000000" style=""/><path d="m481.958 142.485v-60h-220.797l-52.278-41.014h-208.883v384.017c0 24.813 20.187 45 45 45h421.958c24.813 0 45-20.187 45-45v-283.003zm-421.958 283.002c0 8.271-6.729 15-15 15s-15-6.729-15-15v-354.016h168.519l52.278 41.014h201.161v30h-391.958zm421.958 0c0 8.271-6.729 15-15 15h-379.528c1.664-4.693 2.57-9.743 2.57-15v-253.002h391.958z" fill="#ffffff" data-original="#000000" style=""/></g></g></svg>
