<?xml version="1.0"?>
<svg xmlns="http://www.w3.org/2000/svg" xmlns:xlink="http://www.w3.org/1999/xlink" xmlns:svgjs="http://svgjs.com/svgjs" version="1.1" width="512" height="512" x="0" y="0" viewBox="0 0 64 64" style="enable-background:new 0 0 512 512" xml:space="preserve"><g><path xmlns="http://www.w3.org/2000/svg" d="m32 53v-10.586l-2 2v10.586h6.05c-.03-.33-.05-.662-.05-1s.021-.67.05-1z" fill="#ffffff" data-original="#000000" style=""/><path xmlns="http://www.w3.org/2000/svg" d="m10 27c-.338 0-.67-.021-1-.05v11.05h6.586l2-2h-6.586v-9.05c-.33.029-.662.05-1 .05z" fill="#ffffff" data-original="#000000" style=""/><path xmlns="http://www.w3.org/2000/svg" d="m42.293 54.707 1.414-1.414 2.293 2.293 7.64-7.64c-1.647-1.805-4.01-2.946-6.64-2.946-4.962 0-9 4.037-9 9s4.038 9 9 9 9-4.037 9-9c0-1.606-.428-3.112-1.168-4.418l-8.832 8.832z" fill="#ffffff" data-original="#000000" style=""/><path xmlns="http://www.w3.org/2000/svg" d="m10 25c4.962 0 9-4.037 9-9s-4.038-9-9-9-9 4.037-9 9 4.038 9 9 9zm-4.707-12.293 1.414-1.414 3.293 3.293 3.293-3.293 1.414 1.414-3.293 3.293 3.293 3.293-1.414 1.414-3.293-3.293-3.293 3.293-1.414-1.414 3.293-3.293z" fill="#ffffff" data-original="#000000" style=""/><path xmlns="http://www.w3.org/2000/svg" d="m57.293 44.293-3.653 3.653c.455.499.857 1.045 1.192 1.636l3.875-3.875z" fill="#ffffff" data-original="#000000" style=""/><path xmlns="http://www.w3.org/2000/svg" d="m10 54v-4.219l-2.408-.602-2.352 5.647 3.935 3.935 5.646-2.353-.602-2.408z" fill="#ffffff" data-original="#000000" style=""/><path xmlns="http://www.w3.org/2000/svg" d="m3.051 60.077c-.034.082-.051.168-.051.256 0 .457.495.793.925.615l3.253-1.356-2.771-2.771z" fill="#ffffff" data-original="#000000" style=""/><path xmlns="http://www.w3.org/2000/svg" d="m37.256 32.984-2.302 1.426-1.975-1.975-1.272 1.272-1.414-1.414 1.272-1.272-1.974-1.974 1.425-2.303c-.163-.294-.294-.604-.438-.908l-21.622 21.622 3.044.761v2.367l9.293-9.293 1.414 1.414-9.293 9.293h2.367l.761 3.044 21.621-21.622c-.303-.144-.613-.274-.907-.438zm-13.549 8.723-1.414-1.414 1.414-1.414 1.414 1.414zm2.829-2.828-1.414-1.414 1.414-1.414 1.414 1.414zm2.828-2.829-1.414-1.414 1.343-1.343 1.414 1.414z" fill="#ffffff" data-original="#000000" style=""/><path xmlns="http://www.w3.org/2000/svg" d="m45 9c-5.514 0-10 4.486-10 10s4.486 10 10 10 10-4.486 10-10-4.486-10-10-10zm0 19c-1.654 0-3-1.346-3-3s1.346-3 3-3 3 1.346 3 3-1.346 3-3 3zm2.978-14.758-.869 4.939c-.126 1.016-1.036 1.819-2.109 1.819s-1.983-.803-2.116-1.868l-.854-4.842c-.023-.167-.03-.287-.03-.407 0-1.59 1.293-2.883 2.883-2.883h.234c1.59 0 2.883 1.293 2.883 2.883 0 .12-.007.24-.022.359z" fill="#ffffff" data-original="#000000" style=""/><path xmlns="http://www.w3.org/2000/svg" d="m58.728 16.257-.146-.595c-.338-1.378-.882-2.691-1.619-3.904l-.318-.523 1.229-1.986-3.123-3.123-1.986 1.229-.524-.318c-1.215-.736-2.528-1.281-3.904-1.617l-.595-.146-.534-2.274h-4.416l-.535 2.273-.595.146c-1.375.336-2.689.881-3.904 1.617l-.524.318-1.986-1.229-3.123 3.123 1.229 1.986-.318.523c-.736 1.213-1.281 2.526-1.619 3.904l-.146.595-2.271.536v4.416l2.272.535.146.595c.338 1.378.882 2.691 1.619 3.904l.318.523-1.229 1.986 3.123 3.123 1.986-1.229.524.318c1.215.736 2.528 1.281 3.904 1.617l.595.146.534 2.274h4.416l.535-2.273.595-.146c1.375-.336 2.689-.881 3.904-1.617l.524-.318 1.986 1.229 3.123-3.123-1.229-1.986.318-.523c.737-1.214 1.281-2.527 1.619-3.904l.146-.595 2.271-.536v-4.416zm-13.728 14.743c-6.617 0-12-5.383-12-12s5.383-12 12-12 12 5.383 12 12-5.383 12-12 12z" fill="#ffffff" data-original="#000000" style=""/><path xmlns="http://www.w3.org/2000/svg" d="m45.117 12h-.234c-.487 0-.883.396-.883.883 0 .036.002.072.007.107l.854 4.844c.031.232.254.183.271.05l.868-4.942c-.002.005 0-.013 0-.06 0-.486-.396-.882-.883-.882z" fill="#ffffff" data-original="#000000" style=""/><circle xmlns="http://www.w3.org/2000/svg" cx="45" cy="25" r="1" fill="#ffffff" data-original="#000000" style=""/></g></svg>
